<?xml version="1.0" standalone="no"?>
<!DOCTYPE svg PUBLIC "-//W3C//DTD SVG 20010904//EN"
 "http://www.w3.org/TR/2001/REC-SVG-20010904/DTD/svg10.dtd">
<svg version="1.0" xmlns="http://www.w3.org/2000/svg"
 width="570.000000pt" height="520.000000pt" viewBox="50 1 450.000000 450.000000"
 preserveAspectRatio="xMidYMid meet">

<g transform="translate(0.000000,512.000000) scale(0.100000,-0.100000)"
fill="#000000" stroke="none">
<path d="M2384 4304 c-361 -60 -667 -288 -832 -619 -122 -245 -143 -558 -55
-830 69 -215 223 -428 407 -561 l29 -21 -99 -53 c-420 -224 -711 -588 -824
-1030 -25 -97 -50 -265 -50 -337 l0 -53 159 0 158 0 7 87 c52 655 555 1150
1210 1190 286 17 579 -74 823 -255 38 -28 79 -62 93 -77 l24 -26 -373 -373
-373 -374 -84 -422 c-47 -233 -83 -425 -81 -427 2 -2 195 34 427 81 l423 84
827 828 c779 781 829 833 863 901 94 191 63 404 -80 554 -145 152 -370 189
-566 91 -65 -32 -106 -69 -413 -374 l-341 -338 -19 21 c-59 66 -247 195 -386
265 l-72 36 29 22 c137 98 256 237 337 394 138 264 163 564 72 854 -106 335
-387 616 -722 722 -172 54 -353 68 -518 40z m323 -319 c327 -62 576 -311 638
-638 82 -433 -203 -849 -638 -932 -433 -82 -849 203 -932 638 -104 550 382
1036 932 932z m2021 -1612 c66 -49 89 -125 58 -196 -8 -18 -344 -361 -798
-814 l-783 -783 -140 -29 c-77 -17 -140 -29 -142 -28 -1 2 11 65 28 142 l29
140 783 782 c430 431 795 790 812 798 39 20 118 14 153 -12z"/>
</g>
</svg>
